<?xml version="1.0" ?><!DOCTYPE svg  PUBLIC '-//W3C//DTD SVG 1.1//EN'  'http://www.w3.org/Graphics/SVG/1.1/DTD/svg11.dtd'><svg enable-background="new 0 0 32 32" height="32px" version="1.1" viewBox="0 0 32 32" width="32px" xml:space="preserve" xmlns="http://www.w3.org/2000/svg" xmlns:xlink="http://www.w3.org/1999/xlink"><g id="planet_x2C__earth_x2C__heart_x2C__love_x2C__world_x2C__peace"><g id="earth_x2C__globe_x2C__planet"><g id="XMLID_1497_"><g id="XMLID_2935_"><g id="XMLID_2938_"><path d="M15,30.5C7.556,30.5,1.5,24.444,1.5,17S7.556,3.5,15,3.5S28.5,9.556,28.5,17S22.444,30.5,15,30.5z" fill="#80D8FF"/></g></g><g id="XMLID_1504_"><path d="M25.678,8.771c0.613,1.541,0.96,3.214,0.96,4.97c0,7.444-6.056,13.5-13.5,13.5      c-4.345,0-8.207-2.073-10.678-5.271C4.445,26.958,9.312,30.5,15,30.5c7.444,0,13.5-6.056,13.5-13.5      C28.5,13.901,27.44,11.052,25.678,8.771z" fill="#65C7EA"/></g><g id="XMLID_1503_"><path d="M28.5,17c0-4.235-1.968-8.009-5.03-10.486c-0.194-0.157-0.46-0.203-0.699-0.127l-2.35,0.743      c-0.192,0.06-0.352,0.197-0.442,0.376l-0.692,1.387c-0.064,0.126-0.162,0.233-0.284,0.306l-1.858,1.115      c-0.18,0.107-0.307,0.287-0.348,0.492l0,0c-0.207,1.037,0.586,2.005,1.643,2.005h4.302c0.527,0,0.889,0.533,0.692,1.022      l-0.404,1.008c-0.48,0.871-1.725,0.962-2.318,0.104c-0.126-0.183-0.352-0.272-0.574-0.272h-4.717      c-0.262,0-0.505,0.137-0.639,0.362l-0.554,0.923c-0.311,0.519-0.033,1.191,0.554,1.337c0,0,0.683,0.461,0.683,0.875v1.819      c0,0.174,0.061,0.344,0.173,0.477l1.931,2.318c0.142,0.17,0.352,0.268,0.573,0.268h2.405c0.305,0,0.58,0.186,0.692,0.468      l0.744,1.859l0,0l2.69,0.475c0.263,0.046,0.536-0.047,0.706-0.252C27.322,23.264,28.5,20.271,28.5,17z" fill="#55FB9B"/></g><g id="XMLID_1502_"><path d="M25.678,8.771c0.613,1.541,0.96,3.214,0.96,4.97c0,4.265-1.994,8.068-5.092,10.544l0.438,1.094      l2.69,0.475c0.263,0.046,0.536-0.047,0.706-0.252c0.022-0.026,0.057-0.055,0.081-0.082C27.358,23.194,28.5,20.229,28.5,17      C28.5,13.901,27.44,11.052,25.678,8.771z" fill="#43E886"/></g><g id="XMLID_1501_"><path d="M1.527,16.463c0.121,0.042,0.248,0.072,0.385,0.072c0.087,0,0.176,0,0.262,0      c0.656,0.001,1.187,0.533,1.186,1.189v0.417c-0.001,0.654-0.532,1.186-1.188,1.186H1.715c0.585,3.345,2.399,6.266,4.966,8.283      l1.21-2.443c0.083-0.167,0.202-0.311,0.351-0.422c0.346-0.26,1.006-0.754,1.373-1.03c0.173-0.131,0.305-0.301,0.385-0.502      c0.192-0.48,0.559-1.397,0.725-1.813c0.056-0.14,0.084-0.284,0.084-0.435c0-0.226,0-0.604,0-1.03      c0-0.995-1.152-1.549-1.929-0.926l-0.073,0.058c-0.211,0.168-0.473,0.26-0.742,0.26H7.548c-0.546,0-1.021-0.371-1.152-0.899      l-0.113-0.449c-0.082-0.327-0.02-0.674,0.168-0.953l0.609-0.9c0.221-0.327,0.589-0.522,0.983-0.522h0.113      c0.941,0,1.507-1.045,0.995-1.835L9.141,13.75c-0.128-0.197-0.193-0.419-0.193-0.648v-1.419c0-0.449,0.252-0.859,0.654-1.061      c0.355-0.178,0.797-0.399,1.17-0.586c0.507-0.253,0.788-0.836,0.613-1.375c-0.249-0.774-0.784-1.409-1.505-1.437H5.716      C3.248,9.57,1.671,12.832,1.527,16.463z" fill="#55FB9B"/></g><g id="XMLID_2799_"><path d="M9.021,4.915l4.357,1.089c0.587,0.147,1.157-0.297,1.157-0.904V3.523      C12.559,3.592,10.694,4.084,9.021,4.915z" fill="#55FB9B"/></g><g id="XMLID_1500_"><path d="M22.961,27.878l-3.163-1.055c-0.873-0.291-1.825,0.129-2.198,0.97l-1.168,2.628      C18.859,30.165,21.089,29.251,22.961,27.878z" fill="#43E886"/></g><g id="XMLID_1499_"><path d="M7.491,25.977c-1.979-0.921-3.708-2.295-5.031-4.007c0.887,2.229,2.352,4.166,4.206,5.63      c0.005,0.004,0.011,0.007,0.016,0.011L7.491,25.977z" fill="#43E886"/></g><g id="XMLID_1498_"><path d="M1.965,18.396c0-7.444,6.057-13.5,13.5-13.5c5.685,0,10.55,3.537,12.536,8.521      C26.427,7.709,21.203,3.5,15,3.5C7.556,3.5,1.5,9.556,1.5,17c0,1.759,0.348,3.436,0.964,4.979      C2.147,20.836,1.965,19.639,1.965,18.396z" fill="#FFFFFF"/></g></g><g id="XMLID_1587_"><g id="XMLID_1588_"><g id="heart_x2C__love_4_"><g id="XMLID_1592_"><path d="M27.007,1.5c-1.202,0-2.262,0.607-2.891,1.532C23.487,2.107,22.428,1.5,21.225,1.5        c-1.929,0-3.493,1.564-3.493,3.493c0,4.095,6.384,7.507,6.384,7.507S30.5,9.088,30.5,4.993C30.5,3.064,28.936,1.5,27.007,1.5z        " fill="#FF8A80"/></g><g id="XMLID_1591_"><path d="M27.007,1.5c-1.202,0-2.262,0.607-2.891,1.532C23.487,2.107,22.428,1.5,21.225,1.5        c-1.929,0-3.493,1.564-3.493,3.493c0,4.095,6.384,7.507,6.384,7.507S30.5,9.088,30.5,4.993C30.5,3.064,28.936,1.5,27.007,1.5z        " fill="#FFFFFF"/></g><g id="XMLID_1590_"><path d="M30.484,4.641c-0.009-0.031-0.02-0.062-0.028-0.093c-0.602-1.053-1.723-1.772-3.023-1.772        c-0.899,0-1.719,0.34-2.338,0.898c-0.308,0.279-0.788,0.288-1.096,0.008c-0.595-0.541-1.378-0.878-2.239-0.905        c-1.002-0.03-1.932,0.455-2.616,1.189C18.152,5.03,18.056,6.03,18.226,6.99c1.487,3.149,5.891,5.51,5.891,5.51        S30.869,8.891,30.484,4.641z" fill="#FF8A80"/></g><g id="XMLID_1589_"><path d="M30.03,3.272c0.019,0.147,0.044,0.292,0.044,0.445c0,1.958-1.46,3.761-2.985,5.108        c-1.949,1.724-4.868,1.708-6.813-0.021C19.3,7.935,18.35,6.877,17.8,5.712c0.67,3.768,6.316,6.788,6.316,6.788        S30.5,9.088,30.5,4.993C30.5,4.364,30.32,3.782,30.03,3.272z" fill="#F27670"/></g></g></g></g></g><g id="XMLID_1595_"><g id="XMLID_1483_"><g id="XMLID_1496_"><path d="M21.052,13.311H18.44c-0.654,0-1.267-0.29-1.682-0.796c-0.416-0.506-0.58-1.165-0.452-1.807      c0.068-0.344,0.281-0.645,0.582-0.824l0.585-0.351c0.237-0.142,0.544-0.065,0.686,0.171c0.142,0.237,0.065,0.544-0.171,0.686      l-0.586,0.352c-0.06,0.036-0.101,0.094-0.115,0.161c-0.069,0.347,0.02,0.704,0.244,0.977s0.556,0.43,0.909,0.43h2.611      c0.276,0,0.5,0.224,0.5,0.5S21.328,13.311,21.052,13.311z" fill="#455A64"/></g><g id="XMLID_1561_"><path d="M24.806,26.366c-0.073,0-0.146-0.006-0.22-0.02l-2.689-0.474c-0.171-0.03-0.313-0.146-0.378-0.307      l-0.744-1.859c-0.037-0.092-0.128-0.154-0.228-0.154h-2.405c-0.37,0-0.719-0.163-0.957-0.447l-1.932-2.319      c-0.186-0.221-0.289-0.505-0.289-0.797v-1.819c-0.02-0.073-0.211-0.274-0.404-0.419c-0.388-0.126-0.695-0.411-0.854-0.792      c-0.172-0.415-0.139-0.873,0.092-1.258l0.554-0.923c0.223-0.373,0.632-0.604,1.068-0.604h4.717c0.406,0,0.774,0.183,0.985,0.488      c0.178,0.258,0.458,0.405,0.758,0.381c0.3-0.015,0.565-0.181,0.71-0.442l0.157-0.4c0.103-0.256,0.394-0.382,0.65-0.278      c0.256,0.103,0.381,0.394,0.278,0.65l-0.183,0.456c-0.339,0.623-0.913,0.981-1.562,1.014c-0.641,0.024-1.257-0.272-1.631-0.813      c-0.019-0.027-0.082-0.056-0.162-0.056h-4.717c-0.086,0-0.167,0.045-0.21,0.118l-0.554,0.924      c-0.066,0.11-0.076,0.242-0.026,0.36c0.049,0.118,0.148,0.204,0.272,0.234c0.057,0.014,0.111,0.038,0.159,0.071      c0.212,0.143,0.903,0.659,0.903,1.29v1.819c0,0.058,0.02,0.113,0.056,0.156l1.932,2.319c0.046,0.056,0.115,0.088,0.188,0.088      h2.405c0.514,0,0.967,0.308,1.157,0.784l0.64,1.6l2.416,0.427c0.087,0.015,0.182-0.016,0.235-0.08      c0.177-0.212,0.492-0.24,0.704-0.064c0.212,0.177,0.241,0.492,0.064,0.704C25.527,26.206,25.174,26.366,24.806,26.366z" fill="#455A64"/></g><g id="XMLID_1494_"><path d="M6.682,28.11c-0.111,0-0.22-0.037-0.309-0.107c-2.727-2.142-4.556-5.193-5.15-8.59      c-0.025-0.146,0.015-0.294,0.11-0.408c0.095-0.113,0.235-0.178,0.383-0.178h0.458c0.336,0,0.629-0.25,0.68-0.582      c0.042-0.272,0.294-0.461,0.57-0.418c0.272,0.042,0.46,0.297,0.418,0.57c-0.12,0.778-0.746,1.356-1.518,1.423      c0.605,2.72,2.071,5.17,4.19,7.002l0.93-1.878c0.119-0.238,0.292-0.446,0.501-0.601l1.371-1.029      c0.101-0.076,0.175-0.173,0.221-0.288l0.725-1.812c0.033-0.083,0.049-0.164,0.049-0.25v-1.03c0-0.271-0.146-0.502-0.39-0.619      c-0.245-0.118-0.517-0.085-0.727,0.083c-0.372,0.297-0.746,0.428-1.127,0.428H7.548c-0.776,0-1.45-0.526-1.638-1.278      l-0.112-0.448c-0.116-0.465-0.029-0.958,0.239-1.355l0.61-0.901c0.313-0.464,0.836-0.742,1.397-0.742h0.113      c0.255,0,0.48-0.134,0.603-0.359c0.123-0.226,0.112-0.489-0.027-0.704c-0.189-0.292-0.284-0.611-0.284-0.938v-1.419      c0-0.643,0.356-1.22,0.93-1.508l1.17-0.586c0.3-0.15,0.455-0.483,0.361-0.774C10.744,8.3,10.381,7.744,9.86,7.724l-1.817,0      c-0.276,0-0.5-0.224-0.5-0.5s0.224-0.5,0.5-0.5h1.836c0.886,0.033,1.638,0.716,1.981,1.784c0.245,0.756-0.126,1.606-0.865,1.976      l-1.17,0.586c-0.232,0.117-0.377,0.352-0.377,0.614v1.419c0,0.135,0.038,0.262,0.112,0.375c0.354,0.546,0.379,1.191,0.079,1.744      c-0.3,0.552-0.854,0.882-1.481,0.882H8.044c-0.229,0-0.441,0.113-0.569,0.302l-0.61,0.901c-0.109,0.162-0.145,0.363-0.097,0.552      l0.112,0.448c0.077,0.308,0.351,0.521,0.667,0.521h0.518c0.155,0,0.308-0.054,0.43-0.151c0.583-0.468,1.268-0.545,1.857-0.262      c0.59,0.283,0.957,0.866,0.957,1.521v1.03c0,0.211-0.041,0.42-0.12,0.62l-0.725,1.813c-0.113,0.283-0.303,0.53-0.548,0.716      l-1.374,1.031c-0.087,0.065-0.155,0.147-0.205,0.246L7.13,27.832c-0.067,0.135-0.191,0.233-0.338,0.266      C6.755,28.106,6.718,28.11,6.682,28.11z" fill="#455A64"/></g><g id="XMLID_1493_"><path d="M2.958,17.332c-0.118,0-0.237-0.042-0.332-0.126c-0.222-0.164-0.298-0.5-0.134-0.723      s0.449-0.292,0.669-0.128c0.044,0.032,0.087,0.066,0.129,0.103c0.207,0.183,0.225,0.499,0.042,0.706      C3.234,17.275,3.096,17.332,2.958,17.332z" fill="#455A64"/></g><g id="XMLID_1492_"><path d="M11.047,5.921c-0.041,0-0.082-0.005-0.123-0.015l-0.347-0.087c-0.268-0.067-0.43-0.339-0.363-0.607      c0.067-0.269,0.338-0.43,0.607-0.363l0.347,0.087c0.268,0.067,0.43,0.339,0.363,0.607C11.475,5.771,11.271,5.921,11.047,5.921z" fill="#455A64"/></g><g id="XMLID_1491_"><path d="M13.607,6.533c-0.117,0-0.235-0.015-0.351-0.044l-1.131-0.283c-0.268-0.067-0.431-0.338-0.364-0.606      c0.066-0.268,0.336-0.433,0.606-0.364l1.132,0.283c0.128,0.032,0.265,0.003,0.37-0.078c0.105-0.083,0.166-0.207,0.166-0.341      V3.523c0-0.276,0.224-0.5,0.5-0.5s0.5,0.224,0.5,0.5V5.1c0,0.444-0.201,0.856-0.551,1.129      C14.229,6.428,13.921,6.533,13.607,6.533z" fill="#455A64"/></g><g id="XMLID_1490_"><path d="M16.431,30.922c-0.068,0-0.137-0.014-0.203-0.043c-0.252-0.112-0.366-0.408-0.254-0.66l1.168-2.628      c0.48-1.082,1.689-1.618,2.813-1.241l1.323,0.441c0.262,0.087,0.403,0.37,0.316,0.632c-0.087,0.261-0.368,0.405-0.632,0.316      l-1.323-0.441c-0.632-0.21-1.312,0.089-1.583,0.699l-1.168,2.628C16.805,30.812,16.623,30.922,16.431,30.922z" fill="#455A64"/></g><g id="XMLID_1560_"><path d="M15,31C7.28,31,1,24.72,1,17S7.28,3,15,3c0.279,0,0.556,0.008,0.831,0.024      c0.276,0.016,0.486,0.253,0.47,0.528s-0.261,0.485-0.528,0.47C15.517,4.007,15.259,4,15,4C7.832,4,2,9.832,2,17s5.832,13,13,13      s13-5.832,13-13c0-1.489-0.25-2.949-0.745-4.339c-0.092-0.26,0.043-0.546,0.304-0.639c0.258-0.092,0.546,0.043,0.639,0.304      C28.73,13.824,29,15.397,29,17C29,24.72,22.72,31,15,31z" fill="#455A64"/></g><g id="XMLID_1487_"><path d="M24.776,21.782c-0.276,0-0.5-0.224-0.5-0.5s0.224-0.546,0.5-0.546s0.5,0.177,0.5,0.454v0.093      C25.276,21.559,25.052,21.782,24.776,21.782z" fill="#455A64"/></g><g id="XMLID_1486_"><path d="M8.948,26.438c-0.276,0-0.5-0.224-0.5-0.5s0.224-0.546,0.5-0.546s0.5,0.177,0.5,0.454v0.093      C9.448,26.214,9.225,26.438,8.948,26.438z" fill="#455A64"/></g><g id="XMLID_1485_"><path d="M15.465,11.541c-0.276,0-0.5-0.224-0.5-0.5s0.224-0.546,0.5-0.546s0.5,0.177,0.5,0.454v0.093      C15.965,11.317,15.742,11.541,15.465,11.541z" fill="#455A64"/></g><g id="XMLID_1484_"><path d="M25.294,19.065c-0.09,0-0.182-0.024-0.264-0.076c-0.523-0.327-0.943-0.794-1.215-1.351      c-0.121-0.248-0.018-0.547,0.23-0.668c0.249-0.122,0.548-0.018,0.668,0.23c0.19,0.389,0.482,0.714,0.846,0.941      c0.234,0.146,0.306,0.455,0.16,0.689C25.624,18.981,25.461,19.065,25.294,19.065z" fill="#455A64"/></g><g id="XMLID_1585_"><g id="XMLID_1586_"><path d="M24.116,13c-0.081,0-0.162-0.02-0.236-0.059c-0.271-0.145-6.648-3.604-6.648-7.948       C17.232,2.792,19.023,1,21.225,1c1.102,0,2.143,0.454,2.891,1.239C24.864,1.454,25.905,1,27.007,1       c1.75,0,3.28,1.12,3.808,2.787C30.938,4.177,31,4.583,31,4.993c0,4.344-6.376,7.803-6.648,7.948       C24.278,12.98,24.197,13,24.116,13z M21.225,2c-1.65,0-2.993,1.343-2.993,2.993c0,3.32,4.759,6.28,5.884,6.933       C25.241,11.273,30,8.313,30,4.993c0-0.308-0.047-0.613-0.139-0.905C29.466,2.839,28.319,2,27.007,2       c-0.992,0-1.918,0.491-2.477,1.313c-0.187,0.273-0.641,0.273-0.827,0C23.144,2.491,22.217,2,21.225,2z" fill="#455A64"/></g></g></g></g></g></svg>